<svg viewBox="0 0 124.113 48" xmlns="http://www.w3.org/2000/svg" xmlns:xlink="http://www.w3.org/1999/xlink" width="124.113281" height="48.000000" fill="none">
	<defs>
		<clipPath id="clipPath_3">
			<rect width="124.112823" height="48.000000" x="0.000000" y="0.000000" fill="rgb(255,255,255)" />
		</clipPath>
	</defs>
	<g clip-path="url(#clipPath_3)" customFrame="url(#clipPath_3)" style="mix-blend-mode:luminosity">
		<rect id="Company logo" width="124.112823" height="48.000000" x="0.000000" y="0.000000" fill="rgb(255,255,255)" fill-opacity="0" />
		<path id="Vector" d="M71.2962 34.528C73.6275 34.2829 78.7267 33.7468 79.6359 34.78C80.555 35.8233 78.6163 40.1137 77.7496 42.0316L77.7481 42.035C77.4846 42.6165 78.0493 42.8501 78.6409 42.4115C82.4971 39.5563 83.4867 33.574 82.7015 32.7113C81.9162 31.8533 75.1827 31.1144 71.079 33.6741C70.4444 34.065 70.552 34.6084 71.2565 34.5322L71.2962 34.528ZM76.6508 37.8069C69.4708 42.4973 59.0639 44.9998 50.1036 44.9998C37.54 44.9998 26.2295 40.8814 17.6726 34.0316C17.0003 33.493 17.6027 32.7589 18.4094 33.1784C27.644 37.9403 39.062 40.8051 50.8566 40.8051C58.8111 40.8051 67.5615 39.3465 75.6074 36.3196C76.8229 35.862 77.8394 37.0251 76.6508 37.8069Z" fill="rgb(255,153,0)" fill-rule="evenodd" />
		<path id="Vector" d="M14.2202 31.1622C14.5052 31.2957 14.8709 31.2814 15.1237 31.0812L15.1345 31.0907C15.8982 30.4901 17.2858 29.4176 18.0656 28.8408C18.3776 28.612 18.3238 28.245 18.0764 27.9399C17.3772 27.0819 16.635 26.3859 16.635 24.7986L16.635 19.5171C16.635 19.3367 16.6362 19.1574 16.6373 18.9796C16.6504 16.9533 16.6623 15.1028 14.9516 13.6874C13.4833 12.4385 11.0524 12 9.19147 12C5.55576 12 1.49516 13.2012 0.640014 17.1862C0.553961 17.6104 0.898171 17.8345 1.21011 17.8964L4.92112 18.2492C5.26533 18.2349 5.51811 17.9346 5.58265 17.6295C5.89997 16.2567 7.20151 15.5941 8.65902 15.5941C9.44425 15.5941 10.337 15.8515 10.805 16.4759C11.2828 17.1005 11.2755 17.9323 11.269 18.6786C11.2682 18.7639 11.2675 18.8481 11.2675 18.9308L11.2675 19.3693C9.05164 19.5934 6.15275 19.7364 4.07673 20.5467C1.6834 21.4619 0 23.3352 0 26.0856C0 29.6082 2.50627 31.3672 5.72248 31.3672C8.44389 31.3672 9.92829 30.7999 12.0258 28.9028C12.725 29.7941 12.9509 30.2279 14.2202 31.1622ZM65.2548 31.0812C65.002 31.2814 64.6363 31.2957 64.3512 31.1622C63.0819 30.2279 62.8507 29.7942 62.1569 28.9028C60.0593 30.7999 58.5696 31.3672 55.8535 31.3672C52.6319 31.3672 50.131 29.6083 50.131 26.0857C50.131 23.3353 51.8091 21.4619 54.2078 20.5467C56.2838 19.7364 59.1827 19.5934 61.3985 19.3693L61.3985 18.9308C61.3985 18.8488 61.3993 18.7652 61.4 18.6806C61.4065 17.9338 61.4137 17.101 60.9306 16.476C60.4681 15.8515 59.5753 15.5941 58.7847 15.5941C57.3272 15.5941 56.031 16.2567 55.7137 17.6295C55.6492 17.9346 55.3964 18.2349 55.0468 18.2492L51.3412 17.8964C51.0292 17.8345 50.6796 17.6104 50.7711 17.1862C51.6208 13.2012 55.6868 12 59.3225 12C61.1834 12 63.6144 12.4385 65.0827 13.6874C66.7934 15.1028 66.7814 16.9533 66.7684 18.9796C66.7672 19.1575 66.7661 19.3367 66.7661 19.5171L66.7661 24.7986C66.7661 26.386 67.5083 27.0819 68.2074 27.9399C68.4495 28.245 68.5032 28.612 68.1913 28.8408C67.4114 29.4176 66.0238 30.4901 65.2601 31.0907L65.2548 31.0812ZM21.7444 31.1289L25.5684 31.1289C25.9771 31.1289 26.3052 30.8476 26.3052 30.4997L26.3052 21.2808C26.3052 21.2086 26.3051 21.1355 26.3049 21.0614C26.3012 19.0731 26.2963 16.4855 28.9459 16.4855C31.3848 16.4855 31.3431 18.7877 31.3092 20.6622C31.3054 20.8753 31.3016 21.0828 31.3016 21.2808L31.307 30.4997C31.307 30.8333 31.6082 31.105 31.9954 31.1289L35.814 31.1289C36.2228 31.1289 36.5508 30.8476 36.5508 30.4997L36.5508 21.2808C36.5508 21.2038 36.5506 21.1239 36.5504 21.0416C36.5476 20.0686 36.5438 18.7575 36.9058 17.9489C37.2984 17.0718 38.2665 16.5236 39.1916 16.5236C40.2995 16.5236 41.1546 16.8526 41.4397 18.0204C41.5869 18.5806 41.5668 19.8758 41.5534 20.7426C41.5501 20.9527 41.5473 21.1376 41.5473 21.2808L41.5473 30.4997C41.5473 30.8333 41.8538 31.105 42.2357 31.1289L46.0543 31.1289C46.463 31.1289 46.7911 30.8476 46.7911 30.4997L46.7965 19.5219C46.7965 19.2541 46.8016 18.9809 46.8067 18.705C46.8375 17.0608 46.87 15.3219 45.8337 14.0688C44.7635 12.7532 43.0101 12.1669 41.4074 12.1669C39.1539 12.1669 37.051 13.1917 36.1259 15.3892C35.0503 13.1917 33.5551 12.1669 31.1618 12.1669C28.8061 12.1669 27.0582 13.1917 26.1277 15.3892L26.0578 15.3892L26.0578 13.1154C26.0309 12.8008 25.7351 12.5482 25.364 12.5339L21.7982 12.5339C21.3895 12.5339 21.0614 12.8104 21.0614 13.1583L21.0614 30.5521C21.0883 30.8619 21.3787 31.105 21.7444 31.1289ZM96.2442 12.1669C101.918 12.1669 104.989 16.4855 104.989 21.9768C104.989 27.2821 101.596 31.4911 96.2442 31.4911C90.6723 31.4911 87.639 27.1725 87.639 21.7909C87.639 16.3759 90.71 12.1669 96.2442 12.1669ZM108.539 31.1289L112.347 31.1289C112.756 31.1289 113.089 30.8476 113.095 30.4997L113.095 21.1331C113.095 19.9604 113.164 18.9022 113.702 17.8393C114.127 17.0003 114.982 16.4474 115.913 16.4474C118.35 16.4474 118.327 18.8187 118.309 20.6794C118.308 20.8347 118.306 20.9865 118.306 21.1331L118.306 30.5807C118.344 30.8762 118.634 31.105 118.984 31.1289L122.818 31.1289C123.195 31.1289 123.512 30.8858 123.555 30.5807L123.555 19.6315C123.555 17.9489 123.555 15.6084 122.555 14.2166C121.479 12.715 119.807 12.1669 118.091 12.1669C115.45 12.1669 113.95 13.3013 112.879 15.6799L112.809 15.6799L112.809 13.0201C112.734 12.7484 112.46 12.5482 112.126 12.5339L108.582 12.5339C108.195 12.5339 107.878 12.7818 107.845 13.1011L107.851 30.4997C107.851 30.8333 108.157 31.105 108.539 31.1289ZM71.4182 15.6036L71.4182 13.1154C71.4182 12.7388 71.7409 12.4862 72.1282 12.4862L84.6972 12.4862C85.1006 12.4862 85.4233 12.7436 85.4233 13.1154L85.4233 15.2461C85.4179 15.6036 85.0791 16.0708 84.4767 16.8096L77.9636 25.0513C80.3838 24.9988 82.9385 25.3182 85.1329 26.4146C85.6276 26.6624 85.7621 27.0247 85.7998 27.3822L85.7998 30.0373C85.7998 30.3995 85.348 30.8238 84.8747 30.6045C81.0077 28.8074 75.8715 28.612 71.5957 30.6236C71.1601 30.8333 70.7029 30.4138 70.7029 30.0516L70.7029 27.53C70.7029 27.1248 70.7083 26.4336 71.1655 25.8187L78.7112 16.2281L72.1443 16.2281C71.7409 16.2281 71.4182 15.9754 71.4182 15.6036ZM96.2765 15.7181C93.4583 15.7181 93.2808 19.1215 93.2808 21.2427L93.2808 21.3208C93.2803 23.4776 93.2794 27.9066 96.2442 27.9066C99.2077 27.9066 99.3475 24.2457 99.3475 22.0149C99.3475 20.5468 99.2776 18.7926 98.7774 17.4007C98.3471 16.19 97.492 15.7181 96.2765 15.7181ZM11.2676 23.0004C11.2676 22.9409 11.2675 22.8809 11.2675 22.8204L11.2675 22.0864C8.50305 22.0864 5.58265 22.6107 5.58265 25.4993C5.58265 26.9627 6.43779 27.9542 7.90606 27.9542C8.98172 27.9542 9.94443 27.3679 10.5522 26.4145C11.2707 25.2956 11.2693 24.2418 11.2676 23.0004ZM61.3985 22.8204C61.3985 22.8809 61.3986 22.9409 61.3987 23.0004C61.4003 24.2418 61.4017 25.2956 60.6832 26.4146C60.0755 27.3679 59.1074 27.9542 58.0371 27.9542C56.5688 27.9542 55.7083 26.9627 55.7083 25.4993C55.7083 22.6107 58.6287 22.0864 61.3985 22.0864L61.3985 22.8204Z" fill="rgb(0,0,0)" fill-rule="evenodd" />
	</g>
</svg>
