<svg viewBox="0 0 494 394.269" xmlns="http://www.w3.org/2000/svg" xmlns:xlink="http://www.w3.org/1999/xlink" width="494.000000" height="394.268555" fill="none" customFrame="#000000">
	<rect id="Frame 19" width="494.000000" height="394.000000" x="0.000000" y="0.000000" />
	<g id="Illustration">
		<ellipse id="Ellipse 4" rx="168.500000" ry="35.000000" cx="169" cy="198.5" stroke="rgb(0,0,0)" stroke-width="1" />
		<ellipse id="Ellipse 5" rx="168.500000" ry="35.000000" cx="169" cy="223.5" stroke="rgb(0,0,0)" stroke-width="1" />
		<ellipse id="Ellipse 6" rx="168.500000" ry="35.000000" cx="169" cy="248.5" stroke="rgb(0,0,0)" stroke-width="1" />
		<path id="Star 2" d="M253.699 65.7174L252.835 66.5381L252.617 65.3658L241.009 2.74317L240.5 0L239.991 2.74317L228.383 65.3658L228.165 66.5381L227.301 65.7174L181.1 21.8781L179.076 19.9577L180.277 22.4759L207.694 79.9621L208.208 81.0383L207.026 80.8827L143.881 72.5718L141.115 72.2077L143.566 73.539L199.537 103.931L200.585 104.5L199.537 105.069L143.566 135.461L141.115 136.792L207.026 128.117L208.208 127.962L207.694 129.038L180.277 186.524L179.076 189.042L181.1 187.122L227.301 143.283L228.165 142.462L228.383 143.634L239.991 206.257L240.5 209L241.009 206.257L252.617 143.634L252.835 142.462L253.699 143.283L299.9 187.122L301.924 189.042L300.723 186.524L273.306 129.038L272.792 127.962L273.974 128.117L337.119 136.428L339.885 136.792L337.434 135.461L281.463 105.069L280.415 104.5L281.463 103.931L337.434 73.539L339.885 72.2077L337.119 72.5718L273.974 80.8827L272.792 81.0383L273.306 79.9621L300.723 22.4759L301.924 19.9577L299.9 21.8781L253.699 65.7174ZM298.699 24.3963L253.523 67.2635L252.187 68.5312L240.5 5.48635L228.813 68.5312L182.301 24.3963L209.903 82.2701L146.332 73.9031L202.68 104.5L146.332 135.097L209.903 126.73L182.301 184.604L228.813 140.469L240.5 203.514L252.187 140.469L298.699 184.604L271.097 126.73L334.668 135.097L278.32 104.5L334.668 73.9031L271.097 82.2701L298.699 24.3963Z" fill="rgb(0,0,0)" fill-rule="evenodd" />
		<path id="Star 4" d="M294.789 222.06L341.11 207.874L316.972 249.877L356.944 277.247L309.055 284.563L312.578 332.879L277 300L241.422 332.879L244.945 284.563L197.056 277.247L237.028 249.877L212.89 207.874L259.211 222.06L277 177L294.789 222.06Z" fill="rgb(217,217,217)" fill-rule="evenodd" />
		<path id="Vector" d="M46.122 13.55L92.1138 0L78.6941 46.122L92.1138 92.1138L46.122 78.6941L0 92.1138L13.55 46.122L0 0L46.122 13.55Z" fill="rgb(185,255,102)" fill-rule="nonzero" transform="matrix(0.707107,-0.707107,0.707107,0.707107,70,329.134)" />
		<circle id="Ellipse 17" cx="152.5" cy="186.5" r="62.5" fill="rgb(0,0,0)" />
		<circle id="Ellipse 17" cx="152.5" cy="186.5" r="62" stroke="rgb(0,0,0)" stroke-width="1" />
		<ellipse id="Ellipse 18" rx="10.000000" ry="20.000000" cx="132" cy="173" fill="rgb(255,255,255)" />
		<ellipse id="Ellipse 19" rx="10.000000" ry="20.000000" cx="173" cy="173" fill="rgb(255,255,255)" />
	</g>
</svg>
