<svg viewBox="0 0 164 41" xmlns="http://www.w3.org/2000/svg" xmlns:xlink="http://www.w3.org/1999/xlink" width="164.000000" height="41.000000" fill="none" customFrame="#000000">
	<rect id="Link" width="164.000000" height="41.000000" x="0.000000" y="0.000000" />
	<g id="Icon">
		<circle id="Ellipse 1" cx="20.5" cy="20.5" r="20.5" fill="rgb(25,26,35)" />
		<path id="Arrow 1" d="M0 -1.5L20 -1.5L20 1.5L0 1.5L0 -1.5ZM0.02 1.48L0 1.5C-0.84 1.5 -1.5 0.84 -1.5 -0C-1.5 -0.84 -0.84 -1.5 0 -1.5L0.02 -1.48L0.02 1.48ZM17.8787 0L10.4541 -7.42462C9.86009 -8.01859 9.86009 -8.95197 10.4541 -9.54594C11.048 -10.1399 11.9814 -10.1399 12.5754 -9.54594L21.0607 -1.06066C21.6546 -0.466691 21.6546 0.466691 21.0607 1.06066L12.5754 9.54594C11.9814 10.1399 11.048 10.1399 10.4541 9.54594C9.86009 8.95197 9.86009 8.01859 10.4541 7.42462L17.8787 0Z" fill="rgb(185,255,102)" fill-rule="nonzero" transform="matrix(0.866025,-0.5,0.5,0.866025,12,26)" />
	</g>
	<path id="Label" d="M57.6 27.42L57.6 13.42L59.28 13.42L59.28 25.9L66.36 25.9L66.36 27.42L57.6 27.42ZM72.9798 27.7C71.9932 27.7 71.1265 27.4933 70.3798 27.08C69.6332 26.6533 69.0532 26.06 68.6398 25.3C68.2265 24.54 68.0198 23.66 68.0198 22.66L68.0198 22.42C68.0198 21.4067 68.2265 20.52 68.6398 19.76C69.0532 19 69.6265 18.4133 70.3598 18C71.0932 17.5733 71.9332 17.36 72.8798 17.36C73.7998 17.36 74.6132 17.56 75.3198 17.96C76.0265 18.3467 76.5798 18.9067 76.9798 19.64C77.3798 20.3733 77.5798 21.2333 77.5798 22.22L77.5798 22.94L69.5998 22.94C69.6398 23.9933 69.9798 24.82 70.6198 25.42C71.2598 26.0067 72.0598 26.3 73.0198 26.3C73.8598 26.3 74.5065 26.1067 74.9598 25.72C75.4132 25.3333 75.7598 24.8733 75.9998 24.34L77.3598 25C77.1598 25.4133 76.8798 25.8267 76.5198 26.24C76.1732 26.6533 75.7132 27 75.1398 27.28C74.5798 27.56 73.8598 27.7 72.9798 27.7ZM69.6198 21.64L75.9798 21.64C75.9265 20.7333 75.6132 20.0267 75.0398 19.52C74.4798 19.0133 73.7598 18.76 72.8798 18.76C71.9865 18.76 71.2532 19.0133 70.6798 19.52C70.1065 20.0267 69.7532 20.7333 69.6198 21.64ZM83.3358 27.7C82.6558 27.7 82.0358 27.58 81.4758 27.34C80.9158 27.1 80.4758 26.7533 80.1558 26.3C79.8358 25.8467 79.6758 25.2933 79.6758 24.64C79.6758 23.9733 79.8358 23.4267 80.1558 23C80.4758 22.56 80.9158 22.2333 81.4758 22.02C82.0358 21.7933 82.6624 21.68 83.3558 21.68L86.6558 21.68L86.6558 20.96C86.6558 20.2667 86.4491 19.72 86.0358 19.32C85.6358 18.92 85.0358 18.72 84.2358 18.72C83.4491 18.72 82.8358 18.9133 82.3958 19.3C81.9558 19.6733 81.6558 20.18 81.4958 20.82L80.0158 20.34C80.1758 19.7933 80.4291 19.3 80.7758 18.86C81.1225 18.4067 81.5825 18.0467 82.1558 17.78C82.7424 17.5 83.4424 17.36 84.2558 17.36C85.5091 17.36 86.4825 17.6867 87.1758 18.34C87.8691 18.98 88.2158 19.8867 88.2158 21.06L88.2158 25.48C88.2158 25.88 88.4025 26.08 88.7758 26.08L89.6758 26.08L89.6758 27.42L88.2958 27.42C87.8558 27.42 87.5024 27.3 87.2358 27.06C86.9691 26.8067 86.8358 26.4733 86.8358 26.06L86.8358 25.96L86.5958 25.96C86.4491 26.2133 86.2491 26.48 85.9958 26.76C85.7558 27.0267 85.4224 27.2467 84.9958 27.42C84.5691 27.6067 84.0158 27.7 83.3358 27.7ZM83.5158 26.34C84.4491 26.34 85.2024 26.0667 85.7758 25.52C86.3624 24.96 86.6558 24.18 86.6558 23.18L86.6558 22.96L83.4158 22.96C82.7891 22.96 82.2691 23.1 81.8558 23.38C81.4558 23.6467 81.2558 24.0533 81.2558 24.6C81.2558 25.1467 81.4624 25.5733 81.8758 25.88C82.3024 26.1867 82.8491 26.34 83.5158 26.34ZM91.8397 27.42L91.8397 17.64L93.3797 17.64L93.3797 18.84L93.6597 18.84C93.833 18.4133 94.0997 18.1 94.4597 17.9C94.8197 17.7 95.293 17.6 95.8797 17.6L97.0397 17.6L97.0397 19.04L95.7797 19.04C95.073 19.04 94.4997 19.24 94.0597 19.64C93.633 20.0267 93.4197 20.6333 93.4197 21.46L93.4197 27.42L91.8397 27.42ZM99.3788 27.42L99.3788 17.64L100.919 17.64L100.919 19.3L101.199 19.3C101.412 18.8333 101.772 18.4133 102.279 18.04C102.799 17.6533 103.559 17.46 104.559 17.46C105.292 17.46 105.945 17.6133 106.519 17.92C107.105 18.2267 107.572 18.68 107.919 19.28C108.265 19.88 108.439 20.62 108.439 21.5L108.439 27.42L106.859 27.42L106.859 21.62C106.859 20.6467 106.612 19.94 106.119 19.5C105.639 19.06 104.985 18.84 104.159 18.84C103.212 18.84 102.439 19.1467 101.839 19.76C101.252 20.3733 100.959 21.2867 100.959 22.5L100.959 27.42L99.3788 27.42ZM116.781 27.42L116.781 17.64L118.321 17.64L118.321 18.86L118.601 18.86C118.788 18.5133 119.094 18.1933 119.521 17.9C119.948 17.6067 120.548 17.46 121.321 17.46C122.081 17.46 122.694 17.6267 123.161 17.96C123.641 18.2933 123.988 18.7 124.201 19.18L124.481 19.18C124.708 18.7 125.048 18.2933 125.501 17.96C125.968 17.6267 126.614 17.46 127.441 17.46C128.094 17.46 128.668 17.5933 129.161 17.86C129.654 18.1267 130.041 18.5133 130.321 19.02C130.614 19.5133 130.761 20.1067 130.761 20.8L130.761 27.42L129.181 27.42L129.181 20.94C129.181 20.2867 128.988 19.7733 128.601 19.4C128.228 19.0133 127.701 18.82 127.021 18.82C126.301 18.82 125.708 19.0533 125.241 19.52C124.788 19.9867 124.561 20.66 124.561 21.54L124.561 27.42L122.981 27.42L122.981 20.94C122.981 20.2867 122.788 19.7733 122.401 19.4C122.028 19.0133 121.501 18.82 120.821 18.82C120.101 18.82 119.508 19.0533 119.041 19.52C118.588 19.9867 118.361 20.66 118.361 21.54L118.361 27.42L116.781 27.42ZM138.508 27.7C137.521 27.7 136.648 27.4933 135.888 27.08C135.141 26.6667 134.555 26.0867 134.128 25.34C133.715 24.58 133.508 23.6867 133.508 22.66L133.508 22.4C133.508 21.3867 133.715 20.5 134.128 19.74C134.555 18.98 135.141 18.3933 135.888 17.98C136.648 17.5667 137.521 17.36 138.508 17.36C139.495 17.36 140.361 17.5667 141.108 17.98C141.868 18.3933 142.455 18.98 142.868 19.74C143.295 20.5 143.508 21.3867 143.508 22.4L143.508 22.66C143.508 23.6867 143.295 24.58 142.868 25.34C142.455 26.0867 141.868 26.6667 141.108 27.08C140.361 27.4933 139.495 27.7 138.508 27.7ZM138.508 26.28C139.548 26.28 140.375 25.9533 140.988 25.3C141.615 24.6333 141.928 23.74 141.928 22.62L141.928 22.44C141.928 21.32 141.615 20.4333 140.988 19.78C140.375 19.1133 139.548 18.78 138.508 18.78C137.481 18.78 136.655 19.1133 136.028 19.78C135.401 20.4333 135.088 21.32 135.088 22.44L135.088 22.62C135.088 23.74 135.401 24.6333 136.028 25.3C136.655 25.9533 137.481 26.28 138.508 26.28ZM146.351 27.42L146.351 17.64L147.891 17.64L147.891 18.84L148.171 18.84C148.345 18.4133 148.611 18.1 148.971 17.9C149.331 17.7 149.805 17.6 150.391 17.6L151.551 17.6L151.551 19.04L150.291 19.04C149.585 19.04 149.011 19.24 148.571 19.64C148.145 20.0267 147.931 20.6333 147.931 21.46L147.931 27.42L146.351 27.42ZM158.019 27.7C157.032 27.7 156.166 27.4933 155.419 27.08C154.672 26.6533 154.092 26.06 153.679 25.3C153.266 24.54 153.059 23.66 153.059 22.66L153.059 22.42C153.059 21.4067 153.266 20.52 153.679 19.76C154.092 19 154.666 18.4133 155.399 18C156.132 17.5733 156.972 17.36 157.919 17.36C158.839 17.36 159.652 17.56 160.359 17.96C161.066 18.3467 161.619 18.9067 162.019 19.64C162.419 20.3733 162.619 21.2333 162.619 22.22L162.619 22.94L154.639 22.94C154.679 23.9933 155.019 24.82 155.659 25.42C156.299 26.0067 157.099 26.3 158.059 26.3C158.899 26.3 159.546 26.1067 159.999 25.72C160.452 25.3333 160.799 24.8733 161.039 24.34L162.399 25C162.199 25.4133 161.919 25.8267 161.559 26.24C161.212 26.6533 160.752 27 160.179 27.28C159.619 27.56 158.899 27.7 158.019 27.7ZM154.659 21.64L161.019 21.64C160.966 20.7333 160.652 20.0267 160.079 19.52C159.519 19.0133 158.799 18.76 157.919 18.76C157.026 18.76 156.292 19.0133 155.719 19.52C155.146 20.0267 154.792 20.7333 154.659 21.64Z" fill="rgb(0,0,0)" fill-rule="nonzero" />
</svg>
