<svg viewBox="0 0 219.537 36" xmlns="http://www.w3.org/2000/svg" xmlns:xlink="http://www.w3.org/1999/xlink" width="219.537109" height="36.000000" fill="none" customFrame="#000000">
	<defs>
		<clipPath id="clipPath_0">
			<rect width="36.000000" height="36.000000" x="0.000000" y="0.000000" fill="rgb(255,255,255)" />
		</clipPath>
	</defs>
	<rect id="Logo" width="219.536804" height="36.000000" x="0.000000" y="0.000000" />
	<g id="Icon" clip-path="url(#clipPath_0)" customFrame="url(#clipPath_0)">
		<rect id="Icon" width="36.000000" height="36.000000" x="0.000000" y="0.000000" />
		<path id="Vector" d="M17.9986 5.53472L35.5997 0.349121L30.464 18.0001L35.5997 35.6012L17.9986 30.4655L0.347656 35.6012L5.53325 18.0001L0.347656 0.349121L17.9986 5.53472Z" fill="rgb(0,0,0)" fill-rule="nonzero" />
	</g>
	<path id="Positivus" d="M48.9199 31L48.9199 3L60.0399 3Q62.5999 3 64.5999 4.04Q65.8545 4.655 66.7612 5.60286Q67.3287 6.19622 67.7599 6.92Q68.9199 8.76 68.9199 11.36L68.9199 11.88Q68.9199 14.3653 67.8235 16.1927Q67.7729 16.2771 67.7199 16.36Q67.1869 17.2238 66.4766 17.9018Q65.641 18.6995 64.5599 19.24Q62.5599 20.24 60.0399 20.24L53.2399 20.24L53.2399 31L48.9199 31ZM120.3 8.6Q119.567 8.6 118.968 8.3164L118.968 8.31635Q118.586 8.1357 118.26 7.84C117.726 7.30667 117.46 6.62667 117.46 5.8C117.46 4.97333 117.726 4.30667 118.26 3.8Q118.628 3.44907 119.066 3.25208L119.066 3.25206Q119.626 3 120.3 3Q121.111 3 121.734 3.3427Q122.063 3.5236 122.34 3.8C122.873 4.30667 123.14 4.97333 123.14 5.8C123.14 6.62667 122.873 7.30667 122.34 7.84Q122.106 8.06228 121.834 8.21955L121.834 8.21962Q121.177 8.6 120.3 8.6ZM148.854 8.6Q148.121 8.6 147.523 8.3164L147.522 8.31635Q147.141 8.1357 146.814 7.84C146.281 7.30667 146.014 6.62667 146.014 5.8C146.014 4.97333 146.281 4.30667 146.814 3.8Q147.183 3.44907 147.621 3.25208L147.621 3.25206Q148.181 3 148.854 3Q149.666 3 150.289 3.3427Q150.618 3.5236 150.894 3.8C151.428 4.30667 151.694 4.97333 151.694 5.8C151.694 6.62667 151.428 7.30667 150.894 7.84Q150.66 8.06228 150.389 8.21955L150.389 8.21962Q149.732 8.6 148.854 8.6ZM135.854 31C134.654 31 133.694 30.64 132.974 29.92C132.281 29.2 131.934 28.24 131.934 27.04L131.934 14.76L126.494 14.76L126.494 11.28L131.934 11.28L131.934 4.76L136.054 4.76L136.054 11.28L141.934 11.28L141.934 14.76L136.054 14.76L136.054 26.32C136.054 27.12 136.427 27.52 137.174 27.52L141.294 27.52L141.294 31L135.854 31ZM53.2399 16.32L59.5999 16.32Q61.6917 16.32 63.009 15.31L63.0095 15.3097Q63.1278 15.2189 63.2399 15.12Q63.6512 14.7571 63.9382 14.3137Q64.5999 13.2909 64.5999 11.84L64.5999 11.44Q64.5999 9.9063 63.8881 8.8541Q63.616 8.45186 63.2399 8.12Q63.1276 8.02091 63.009 7.93Q61.6917 6.92 59.5999 6.92L53.2399 6.92L53.2399 16.32ZM81.8346 31.56C79.8613 31.56 78.1013 31.16 76.5546 30.36C75.0346 29.5333 73.8346 28.36 72.9546 26.84Q71.6346 24.56 71.6346 21.44L71.6346 20.84Q71.6346 17.72 72.9546 15.48Q73.6821 14.2234 74.7012 13.2828L74.7012 13.2827Q75.5312 12.5166 76.5546 11.96C78.1013 11.1333 79.8613 10.72 81.8346 10.72C83.8079 10.72 85.5679 11.1333 87.1146 11.96Q88.263 12.5738 89.1664 13.4424Q90.088 14.3286 90.7546 15.48C91.6346 16.9733 92.0746 18.76 92.0746 20.84L92.0746 21.44C92.0746 23.52 91.6346 25.32 90.7546 26.84Q90.088 27.9914 89.1664 28.8776Q88.263 29.7462 87.1146 30.36C85.5679 31.16 83.8079 31.56 81.8346 31.56ZM105.284 31.56Q101.524 31.56 99.044 29.88C97.3907 28.76 96.3773 27.0667 96.004 24.8L99.844 23.88C100.057 24.9733 100.417 25.84 100.924 26.48C101.431 27.12 102.057 27.5733 102.804 27.84C103.577 28.1067 104.404 28.24 105.284 28.24C106.591 28.24 107.591 27.9867 108.284 27.48Q108.945 27.0151 109.201 26.3854Q109.364 25.9859 109.364 25.52C109.364 24.72 109.031 24.1333 108.364 23.76C107.697 23.3867 106.711 23.08 105.404 22.84L104.044 22.6C102.711 22.36 101.497 22.0133 100.404 21.56C99.3107 21.1067 98.444 20.48 97.804 19.68Q97.7307 19.5884 97.6631 19.4929Q96.844 18.3366 96.844 16.6C96.844 14.7333 97.5373 13.2933 98.924 12.28Q101.004 10.72 104.444 10.72Q107.764 10.72 109.884 12.24C111.324 13.2267 112.257 14.5733 112.684 16.28L108.844 17.36C108.604 16.16 108.097 15.32 107.324 14.84C106.551 14.3333 105.591 14.08 104.444 14.08C103.324 14.08 102.444 14.2933 101.804 14.72Q101.313 15.0268 101.073 15.4697Q100.844 15.8928 100.844 16.44Q100.844 17.1738 101.188 17.6682Q101.407 17.9824 101.764 18.2C102.404 18.5733 103.257 18.8533 104.324 19.04L105.724 19.28C107.137 19.52 108.431 19.8533 109.604 20.28C110.777 20.7067 111.697 21.32 112.364 22.12C113.057 22.92 113.404 23.9867 113.404 25.32C113.404 27.2933 112.671 28.8267 111.204 29.92C109.737 31.0133 107.764 31.56 105.284 31.56ZM211.417 31.56C208.91 31.56 206.83 31 205.177 29.88Q204.478 29.4067 203.932 28.7969Q202.539 27.2422 202.137 24.8L205.977 23.88C206.19 24.9733 206.55 25.84 207.057 26.48C207.563 27.12 208.19 27.5733 208.937 27.84C209.71 28.1067 210.537 28.24 211.417 28.24C212.723 28.24 213.723 27.9867 214.417 27.48Q215.077 27.0151 215.334 26.3854Q215.497 25.9859 215.497 25.52C215.497 24.72 215.163 24.1333 214.497 23.76C213.83 23.3867 212.843 23.08 211.537 22.84L210.177 22.6C208.843 22.36 207.63 22.0133 206.537 21.56C205.443 21.1067 204.577 20.48 203.937 19.68C203.297 18.88 202.977 17.8533 202.977 16.6C202.977 14.7333 203.67 13.2933 205.057 12.28C206.443 11.24 208.283 10.72 210.577 10.72C212.79 10.72 214.603 11.2267 216.017 12.24Q217.064 12.9572 217.753 13.928Q218.487 14.9606 218.817 16.28L214.977 17.36C214.737 16.16 214.23 15.32 213.457 14.84C212.683 14.3333 211.723 14.08 210.577 14.08C209.457 14.08 208.577 14.2933 207.937 14.72C207.297 15.12 206.977 15.6933 206.977 16.44C206.977 17.24 207.283 17.8267 207.897 18.2C208.537 18.5733 209.39 18.8533 210.457 19.04L211.857 19.28C213.27 19.52 214.563 19.8533 215.737 20.28C216.91 20.7067 217.83 21.32 218.497 22.12C219.19 22.92 219.537 23.9867 219.537 25.32C219.537 27.2933 218.803 28.8267 217.337 29.92C215.87 31.0133 213.897 31.56 211.417 31.56ZM118.22 31L118.22 11.28L122.34 11.28L122.34 31L118.22 31ZM146.774 31L146.774 11.28L150.894 11.28L150.894 31L146.774 31ZM161.569 31L154.929 11.28L159.289 11.28L164.529 27.96L165.169 27.96L170.409 11.28L174.769 11.28L168.129 31L161.569 31ZM186.326 31.36C184.833 31.36 183.5 31.0267 182.326 30.36C181.153 29.6933 180.233 28.7467 179.566 27.52C178.9 26.2933 178.566 24.8267 178.566 23.12L178.566 11.28L182.686 11.28L182.686 22.84Q182.686 25.3988 183.965 26.6388L183.966 26.64C184.82 27.44 186.006 27.84 187.526 27.84Q189.188 27.84 190.415 27.1098L190.415 27.1096Q191.049 26.7323 191.566 26.16C192.606 25.0133 193.126 23.3733 193.126 21.24L193.126 11.28L197.246 11.28L197.246 31L193.206 31L193.206 28.04L192.566 28.04C192.193 28.84 191.526 29.6 190.566 30.32C189.606 31.0133 188.193 31.36 186.326 31.36ZM81.8346 27.88Q83.7392 27.88 85.1338 27.0367Q85.7309 26.6757 86.2346 26.16Q86.467 25.9222 86.668 25.6603Q87.9546 23.9838 87.9546 21.32L87.9546 20.96C87.9546 18.9067 87.3946 17.3067 86.2746 16.16C85.1546 14.9867 83.6746 14.4 81.8346 14.4C80.0479 14.4 78.5813 14.9867 77.4346 16.16Q77.2608 16.3379 77.1051 16.5303Q75.7546 18.1986 75.7546 20.96L75.7546 21.32Q75.7546 24.0632 77.0873 25.7593Q77.2509 25.9675 77.4346 26.16C78.5813 27.3067 80.0479 27.88 81.8346 27.88Z" fill="rgb(0,0,0)" fill-rule="evenodd" />
</svg>
