<svg viewBox="0 0 125.24 48" xmlns="http://www.w3.org/2000/svg" xmlns:xlink="http://www.w3.org/1999/xlink" width="125.240234" height="48.000000" fill="none">
	<defs>
		<clipPath id="clipPath_7">
			<rect width="125.241127" height="48.000000" x="0.000000" y="0.000000" fill="rgb(255,255,255)" />
		</clipPath>
	</defs>
	<g clip-path="url(#clipPath_7)" customFrame="url(#clipPath_7)" style="mix-blend-mode:luminosity">
		<rect id="Company logo" width="125.241127" height="48.000000" x="0.000000" y="0.000000" fill="rgb(255,255,255)" fill-opacity="0" />
		<path id="Vector" d="M17.2219 38.0663C15.3378 38.3595 13.4206 38.4474 11.4373 38.6816L5.38798 22.9786L5.38798 39.3555C3.50388 39.5313 1.78503 39.7656 0 40L0 10L5.02459 10L11.9 27.0217L11.9 10L17.2219 10L17.2219 38.0663ZM27.6345 20.9863C29.6841 20.9863 32.8243 20.8984 34.7084 20.8984L34.7084 25.5858C32.3614 25.5858 29.6179 25.5858 27.6345 25.6737L27.6345 32.6465C30.7419 32.4708 33.8491 32.2362 36.9892 32.1483L36.9892 36.6597L22.3455 37.6854L22.3455 10L36.9892 10L36.9892 14.6875L27.6345 14.6875L27.6345 20.9863L27.6345 20.9863ZM56.6573 14.6876L51.1701 14.6876L51.1701 36.2501C49.3851 36.2501 47.6 36.2501 45.8814 36.3085L45.8814 14.6876L40.3943 14.6876L40.3943 10L56.6575 10L56.6573 14.6876L56.6573 14.6876ZM65.2517 20.6642L72.491 20.6642L72.491 25.3516L65.2517 25.3516L65.2517 35.9864L60.0616 35.9864L60.0616 10L74.8379 10L74.8379 14.6875L65.2517 14.6875L65.2517 20.6642L65.2517 20.6642ZM83.4323 31.8848C86.4404 31.9432 89.4814 32.1486 92.4235 32.2948L92.4235 36.9238C87.6966 36.66 82.9696 36.3966 78.1435 36.3085L78.1435 10L83.4323 10L83.4323 31.8848ZM96.8859 37.2461C98.5717 37.3341 100.357 37.422 102.076 37.5975L102.076 10L96.8859 10L96.8859 37.2461L96.8859 37.2461ZM125.248 10L118.537 24.2676L125.248 40C123.264 39.7656 121.281 39.4433 119.298 39.1503L115.496 30.4786L111.629 38.4474C109.712 38.1542 107.86 38.0663 105.944 37.8319L112.753 24.0917L106.604 10L112.29 10L115.761 17.8809L119.463 10L125.248 10L125.248 10Z" fill="rgb(216,31,38)" fill-rule="nonzero" />
	</g>
</svg>
