<svg viewBox="0 0 145.551 48" xmlns="http://www.w3.org/2000/svg" xmlns:xlink="http://www.w3.org/1999/xlink" width="145.550781" height="48.000000" fill="none">
	<defs>
		<clipPath id="clipPath_6">
			<rect width="145.550507" height="48.000000" x="0.000000" y="0.000000" fill="rgb(255,255,255)" />
		</clipPath>
	</defs>
	<g clip-path="url(#clipPath_6)" customFrame="url(#clipPath_6)" style="mix-blend-mode:luminosity">
		<rect id="Company logo" width="145.550507" height="48.000000" x="0.000000" y="0.000000" fill="rgb(255,255,255)" fill-opacity="0" />
		<path id="Vector" d="M23.9678 6.08133L2.35537 7.47758C0.621195 7.61492 0 8.59917 0 9.81231L0 30.7104C0 31.6488 0.388247 32.45 1.29416 33.5258L6.39314 39.3626C7.2214 40.3011 7.97201 40.5071 9.57677 40.4384L34.6575 39.0879C36.7799 38.9506 37.3753 38.0808 37.3753 36.6159L37.3753 13.1084C37.3753 12.3073 36.987 12.1013 35.8482 11.3688L28.9632 7.08847C27.3067 6.01266 26.6079 5.87532 23.9678 6.08133ZM10.0993 12.7134C8.06273 12.8379 7.60986 12.8655 6.4449 12.0326L3.49422 9.97254C3.18363 9.72075 3.33893 9.37741 4.08954 9.30874L24.8478 7.95826C26.582 7.82093 27.5138 8.37028 28.1867 8.82806L31.7586 11.0941C31.9139 11.1399 32.3022 11.5519 31.8363 11.5519L10.3791 12.6964C10.2826 12.7022 10.1894 12.7079 10.0993 12.7134ZM103.992 15.8937C105.371 15.8937 106.5 14.9038 106.5 13.6939C106.5 12.4474 105.371 11.4575 103.992 11.4575C102.613 11.4575 101.484 12.4474 101.484 13.6939C101.484 14.9038 102.613 15.8937 103.992 15.8937ZM50.7008 34.7749L50.7008 20.2199L50.9934 20.2199L62.9473 34.7749L66.7091 34.7749L66.7091 13.4006L62.5294 13.4006L62.5294 27.919L62.2368 27.919L50.2828 13.4006L46.5211 13.4006L46.5211 34.7749L50.7008 34.7749ZM7.73906 36.4098L7.73906 16.4502C7.73906 15.5804 8.04966 15.1684 8.95557 15.0998L33.5963 13.818C34.4246 13.7493 34.8128 14.23 34.8128 15.0998L34.8128 34.922C34.8128 35.7918 34.6575 36.5243 33.2857 36.593L9.70618 37.8061C8.33437 37.8748 7.73906 37.4856 7.73906 36.4098ZM91.2439 14.6105L91.2439 18.68L88.3181 18.68L88.3181 21.6131L91.2439 21.6131L91.2439 30.4487C91.2439 33.6017 92.9158 34.8483 97.1791 34.8483C97.9732 34.8483 98.7674 34.7749 99.3943 34.6649L99.3943 31.8053C98.8928 31.8419 98.5584 31.8786 97.9732 31.8786C96.2177 31.8786 95.4236 31.182 95.4236 29.5688L95.4236 21.6131L99.3943 21.6131L99.3943 18.68L95.4236 18.68L95.4236 14.6105L91.2439 14.6105ZM30.335 18.8079C31.008 18.7392 31.1633 18.1212 31.008 17.5261L25.8055 17.7778C25.0549 17.8465 24.4337 18.3959 24.589 19.1283L26.5561 19.3343L26.5561 28.5588L18.817 18.1212L13.2004 18.4645C12.1392 18.5332 11.7509 19.403 11.9062 19.9981L13.7957 20.1355L13.7957 33.3198L12.4239 33.6631C11.9062 33.8005 11.7509 34.4642 11.9062 34.7389L17.1346 34.4642C19.0241 34.4642 19.0241 33.2511 19.0241 33.2511L16.6687 32.7933L16.6687 22.8135L24.0972 33.1367C25.0031 34.1438 25.3137 34.4871 26.5302 34.4871C27.3067 34.4871 28.2126 34.2125 29.1962 33.7547L29.1962 19.0139L30.335 18.8079ZM78.5376 35.1049C84.0548 35.1049 87.4404 31.9519 87.4404 26.6725C87.4404 21.4297 84.0548 18.2401 78.5376 18.2401C73.0622 18.2401 69.6348 21.4297 69.6348 26.6725C69.6766 31.9519 73.0204 35.1049 78.5376 35.1049ZM117.534 35.1049C123.051 35.1049 126.437 31.9519 126.437 26.6725C126.437 21.4297 123.051 18.2401 117.534 18.2401C112.059 18.2401 108.631 21.4297 108.631 26.6725C108.631 31.9519 111.975 35.1049 117.534 35.1049ZM128.903 34.7749L133.083 34.7749L133.083 25.3526C133.083 22.9696 134.671 21.4664 137.137 21.4664C139.687 21.4664 140.857 22.7129 140.857 25.1693L140.857 34.7749L145.037 34.7749L145.037 24.2894C145.037 20.4032 142.78 18.2401 138.684 18.2401C135.925 18.2401 134.086 19.34 133.208 21.1731L132.916 21.1731L132.916 18.5701L128.861 18.5701C128.903 18.5702 128.903 34.7749 128.903 34.7749ZM101.902 34.7749L106.082 34.7749L106.082 18.5701L101.902 18.5701L101.902 34.7749ZM78.5376 32.0252C75.6118 32.0252 73.9399 30.0821 73.9399 26.6725C73.9399 23.2995 75.6118 21.3198 78.5376 21.3198C81.4634 21.3198 83.1353 23.2995 83.1353 26.6725C83.1353 30.0821 81.4634 32.0252 78.5376 32.0252ZM117.534 32.0252C114.608 32.0252 112.937 30.0821 112.937 26.6725C112.937 23.2995 114.608 21.3198 117.534 21.3198C120.418 21.3198 122.132 23.2995 122.132 26.6725C122.09 30.0821 120.418 32.0252 117.534 32.0252Z" fill="rgb(0,0,0)" fill-rule="evenodd" />
	</g>
</svg>
